<svg width="326" height="325" viewBox="0 0 326 325" fill="none" xmlns="http://www.w3.org/2000/svg">
<path d="M325 219C318.2 173.8 255.5 161.5 225 161C196.5 159 173.32 159.407 155 154.176C94.1283 136.794 84.8755 91.5065 89.9999 65.5C92.5852 86.6129 120.814 98.1337 153.5 103.984C181.5 107.5 212 105.5 234 109C311.2 127 326.833 189.833 325 219Z" fill="#6366F2"/>
<path d="M0 324.5C66 286.667 216.8 229.6 292 304C257.5 240.167 150.8 154.9 0 324.5Z" fill="#38536E"/>
<path d="M103 202C-5 195.2 3.66667 64.5 21.5 0C34.5 42 46.5 82.5 84.5 140.5C114.9 186.9 186.833 190.5 219 186.5C295 187.3 309.333 245.167 307 274C257.5 206.5 238 210.5 103 202Z" fill="#38536E"/>
</svg>
